<svg width="24" height="24" viewBox="0 0 24 24" fill="none" xmlns="http://www.w3.org/2000/svg">
<path d="M8.10156 9.37207C7.41309 10.2288 7 11.3162 7 12.5C7 15.26 9.24 17.5 12 17.5C12.2587 17.5 12.5126 17.4793 12.7607 17.4414L14.126 19.8066C13.4363 19.9322 12.726 20 12 20C7 20 2.73 16.89 1 12.5C2.02786 9.89174 3.95207 7.73484 6.39355 6.41406L8.10156 9.37207ZM12 5C17 5 21.27 8.11 23 12.5C21.7715 15.6175 19.2613 18.0876 16.1191 19.2588L14.6602 16.7314C16.065 15.846 17 14.2822 17 12.5C17 9.74 14.76 7.5 12 7.5C11.1563 7.5 10.3614 7.70963 9.66406 8.0791L8.24121 5.61328C9.42194 5.21661 10.6855 5 12 5ZM11.625 15.4756C10.1428 15.2916 9 14.0329 9 12.5C9 12.0863 9.08271 11.6922 9.2334 11.334L11.625 15.4756ZM12 9.5C13.66 9.5 15 10.84 15 12.5C15 13.5451 14.468 14.4621 13.6602 14.999L10.666 9.81348C11.0678 9.61408 11.52 9.5 12 9.5Z" fill="#BFBFBF"/>
<rect x="6.73193" y="3" width="2" height="21" transform="rotate(-30 6.73193 3)" fill="#BFBFBF"/>
</svg>
