<svg width="520" height="100" viewBox="0 0 520 100" fill="none" xmlns="http://www.w3.org/2000/svg">
<path d="M141 98.6692V1.3308H167.575V77.3764H207.15V98.6692H141Z" fill="#2368E7"/>
<path d="M308.908 50C308.908 60.8365 306.789 69.9778 302.551 77.424C298.313 84.8384 292.594 90.4626 285.392 94.2966C278.191 98.0989 270.161 100 261.303 100C252.381 100 244.319 98.083 237.118 94.2491C229.949 90.3834 224.245 84.7433 220.007 77.3289C215.801 69.8828 213.698 60.7731 213.698 50C213.698 39.1635 215.801 30.038 220.007 22.6236C224.245 15.1774 229.949 9.55323 237.118 5.75095C244.319 1.91698 252.381 0 261.303 0C270.161 0 278.191 1.91698 285.392 5.75095C292.594 9.55323 298.313 15.1774 302.551 22.6236C306.789 30.038 308.908 39.1635 308.908 50ZM281.569 50C281.569 44.1698 280.788 39.2586 279.227 35.2662C277.697 31.2421 275.419 28.2003 272.392 26.1407C269.397 24.0494 265.7 23.0038 261.303 23.0038C256.906 23.0038 253.194 24.0494 250.167 26.1407C247.171 28.2003 244.893 31.2421 243.332 35.2662C241.802 39.2586 241.037 44.1698 241.037 50C241.037 55.8302 241.802 60.7573 243.332 64.7814C244.893 68.7738 247.171 71.8156 250.167 73.9068C253.194 75.9664 256.906 76.9962 261.303 76.9962C265.7 76.9962 269.397 75.9664 272.392 73.9068C275.419 71.8156 277.697 68.7738 279.227 64.7814C280.788 60.7573 281.569 55.8302 281.569 50Z" fill="#2368E7"/>
<path d="M384.773 33.4601C384.358 31.7807 383.705 30.3074 382.813 29.0399C381.921 27.7408 380.805 26.6477 379.467 25.7605C378.161 24.8416 376.631 24.1603 374.879 23.7167C373.158 23.2414 371.262 23.0038 369.191 23.0038C364.73 23.0038 360.922 24.0653 357.768 26.1882C354.645 28.3112 352.255 31.3688 350.598 35.3612C348.973 39.3536 348.161 44.1698 348.161 49.8099C348.161 55.5133 348.941 60.3929 350.503 64.4487C352.064 68.5044 354.39 71.6096 357.481 73.7643C360.572 75.9189 364.411 76.9962 369 76.9962C373.047 76.9962 376.408 76.41 379.085 75.2376C381.793 74.0653 383.817 72.4018 385.155 70.2472C386.493 68.0925 387.162 65.5577 387.162 62.6426L391.751 63.1179H369.382V44.2966H412.781V57.7947C412.781 66.6667 410.885 74.2554 407.093 80.5608C403.333 86.8346 398.14 91.6508 391.512 95.0095C384.916 98.3365 377.348 100 368.809 100C359.281 100 350.917 97.988 343.716 93.9639C336.514 89.9398 330.89 84.2047 326.844 76.7586C322.829 69.3124 320.821 60.4563 320.821 50.1901C320.821 42.142 322.048 35.0127 324.502 28.8023C326.987 22.5919 330.428 17.3479 334.826 13.0703C339.223 8.76109 344.305 5.51331 350.073 3.32699C355.84 1.109 362.022 0 368.617 0C374.417 0 379.802 0.823829 384.773 2.47149C389.775 4.08745 394.188 6.40051 398.012 9.41065C401.868 12.3891 404.974 15.9221 407.332 20.0095C409.69 24.097 411.124 28.5805 411.634 33.4601H384.773Z" fill="#2368E7"/>
<path d="M520 50C520 60.8365 517.881 69.9778 513.643 77.424C509.405 84.8384 503.686 90.4626 496.484 94.2966C489.283 98.0989 481.253 100 472.395 100C463.473 100 455.411 98.083 448.21 94.2491C441.041 90.3834 435.337 84.7433 431.099 77.3289C426.893 69.8828 424.79 60.7731 424.79 50C424.79 39.1635 426.893 30.038 431.099 22.6236C435.337 15.1774 441.041 9.55323 448.21 5.75095C455.411 1.91698 463.473 0 472.395 0C481.253 0 489.283 1.91698 496.484 5.75095C503.686 9.55323 509.405 15.1774 513.643 22.6236C517.881 30.038 520 39.1635 520 50ZM492.661 50C492.661 44.1698 491.88 39.2586 490.319 35.2662C488.789 31.2421 486.511 28.2003 483.484 26.1407C480.488 24.0494 476.792 23.0038 472.395 23.0038C467.998 23.0038 464.286 24.0494 461.258 26.1407C458.263 28.2003 455.985 31.2421 454.424 35.2662C452.894 39.2586 452.129 44.1698 452.129 50C452.129 55.8302 452.894 60.7573 454.424 64.7814C455.985 68.7738 458.263 71.8156 461.258 73.9068C464.286 75.9664 467.998 76.9962 472.395 76.9962C476.792 76.9962 480.488 75.9664 483.484 73.9068C486.511 71.8156 488.789 68.7738 490.319 64.7814C491.88 60.7573 492.661 55.8302 492.661 50Z" fill="#2368E7"/>
<path d="M87.7574 18.8544C98.1249 27.8426 107.796 37.3886 106.948 46.6938C106.087 55.9989 94.707 65.0759 86.9345 74.0514C79.1621 83.0269 75.01 91.9137 67.7185 96.4015C60.4271 100.877 50.0089 100.953 40.4009 97.8721C30.7802 94.7788 21.9697 88.5162 14.1719 79.49C6.37412 70.4637 -0.410976 58.6738 0.0194225 46.7572C0.437162 34.8278 8.08306 22.7717 18.4886 13.7962C28.8941 4.80797 42.0845 -1.08698 54.199 0.168077C66.3261 1.43581 77.3898 9.86621 87.7574 18.8544Z" fill="#2368E7"/>
</svg>
